<?xml version="1.0" encoding="UTF-8" standalone="no"?>
<!DOCTYPE svg PUBLIC "-//W3C//DTD SVG 1.1//EN"
 "http://www.w3.org/Graphics/SVG/1.1/DTD/svg11.dtd">
<!-- Generated by graphviz version 2.38.0 (20140413.2041)
 -->
<!-- Title: G Pages: 1 -->
<svg width="206pt" height="332pt"
 viewBox="0.00 0.00 206.00 332.00" xmlns="http://www.w3.org/2000/svg" xmlns:xlink="http://www.w3.org/1999/xlink">
<g id="graph0" class="graph" transform="scale(1 1) rotate(0) translate(4 328)">
<title>G</title>
<polygon fill="white" stroke="none" points="-4,4 -4,-328 202,-328 202,4 -4,4"/>
<!-- a -->
<g id="node1" class="node"><title>a</title>
<ellipse fill="white" stroke="black" cx="94" cy="-306" rx="27" ry="18"/>
<text text-anchor="middle" x="94" y="-302.3" font-family="Times,serif" font-size="14.00">a</text>
</g>
<!-- b -->
<g id="node2" class="node"><title>b</title>
<ellipse fill="white" stroke="black" cx="94" cy="-234" rx="27" ry="18"/>
<text text-anchor="middle" x="94" y="-230.3" font-family="Times,serif" font-size="14.00">b</text>
</g>
<!-- a&#45;&gt;b -->
<g id="edge1" class="edge"><title>a&#45;&gt;b</title>
<path fill="none" stroke="black" d="M94,-287.697C94,-279.983 94,-270.712 94,-262.112"/>
<polygon fill="black" stroke="black" points="97.5001,-262.104 94,-252.104 90.5001,-262.104 97.5001,-262.104"/>
</g>
<!-- d -->
<g id="node4" class="node"><title>d</title>
<ellipse fill="white" stroke="black" cx="99" cy="-90" rx="27" ry="18"/>
<text text-anchor="middle" x="99" y="-86.3" font-family="Times,serif" font-size="14.00">d</text>
</g>
<!-- a&#45;&gt;d -->
<g id="edge3" class="edge"><title>a&#45;&gt;d</title>
<path fill="none" stroke="black" d="M107.416,-289.96C115.493,-279.947 125.128,-266.086 130,-252 145.707,-206.588 149.123,-189.929 135,-144 131.714,-133.315 125.46,-122.851 119.075,-114.081"/>
<polygon fill="black" stroke="black" points="121.646,-111.686 112.75,-105.931 116.116,-115.977 121.646,-111.686"/>
</g>
<!-- e -->
<g id="node5" class="node"><title>e</title>
<ellipse fill="white" stroke="black" cx="27" cy="-162" rx="27" ry="18"/>
<text text-anchor="middle" x="27" y="-158.3" font-family="Times,serif" font-size="14.00">e</text>
</g>
<!-- a&#45;&gt;e -->
<g id="edge6" class="edge"><title>a&#45;&gt;e</title>
<path fill="none" stroke="black" d="M81.827,-289.435C74.2457,-279.214 64.6961,-265.316 58,-252 47.8759,-231.866 39.6723,-207.634 34.2532,-189.543"/>
<polygon fill="black" stroke="black" points="37.6126,-188.56 31.4627,-179.933 30.8903,-190.512 37.6126,-188.56"/>
</g>
<!-- c -->
<g id="node3" class="node"><title>c</title>
<ellipse fill="white" stroke="black" cx="99" cy="-162" rx="27" ry="18"/>
<text text-anchor="middle" x="99" y="-158.3" font-family="Times,serif" font-size="14.00">c</text>
</g>
<!-- b&#45;&gt;c -->
<g id="edge2" class="edge"><title>b&#45;&gt;c</title>
<path fill="none" stroke="black" d="M95.236,-215.697C95.7869,-207.983 96.4491,-198.712 97.0634,-190.112"/>
<polygon fill="black" stroke="black" points="100.557,-190.328 97.7783,-180.104 93.5746,-189.83 100.557,-190.328"/>
</g>
<!-- b&#45;&gt;e -->
<g id="edge5" class="edge"><title>b&#45;&gt;e</title>
<path fill="none" stroke="black" d="M80.1176,-218.496C70.8646,-208.829 58.5286,-195.94 48.0738,-185.017"/>
<polygon fill="black" stroke="black" points="50.3077,-182.29 40.8647,-177.485 45.2508,-187.13 50.3077,-182.29"/>
</g>
<!-- c&#45;&gt;d -->
<g id="edge4" class="edge"><title>c&#45;&gt;d</title>
<path fill="none" stroke="black" d="M99,-143.697C99,-135.983 99,-126.712 99,-118.112"/>
<polygon fill="black" stroke="black" points="102.5,-118.104 99,-108.104 95.5001,-118.104 102.5,-118.104"/>
</g>
<!-- f -->
<g id="node6" class="node"><title>f</title>
<ellipse fill="white" stroke="black" cx="99" cy="-18" rx="27" ry="18"/>
<text text-anchor="middle" x="99" y="-14.3" font-family="Times,serif" font-size="14.00">f</text>
</g>
<!-- d&#45;&gt;f -->
<g id="edge8" class="edge"><title>d&#45;&gt;f</title>
<path fill="none" stroke="black" d="M99,-71.6966C99,-63.9827 99,-54.7125 99,-46.1124"/>
<polygon fill="black" stroke="black" points="102.5,-46.1043 99,-36.1043 95.5001,-46.1044 102.5,-46.1043"/>
</g>
<!-- e&#45;&gt;f -->
<g id="edge7" class="edge"><title>e&#45;&gt;f</title>
<path fill="none" stroke="black" d="M32.6173,-144.121C38.9703,-125.856 50.123,-96.1117 63,-72 68.2662,-62.1392 74.9458,-51.8524 81.1175,-42.9939"/>
<polygon fill="black" stroke="black" points="84.0903,-44.8535 87.0488,-34.6801 78.3918,-40.788 84.0903,-44.8535"/>
</g>
<!-- g -->
<g id="node7" class="node"><title>g</title>
<ellipse fill="white" stroke="black" cx="171" cy="-90" rx="27" ry="18"/>
<text text-anchor="middle" x="171" y="-86.3" font-family="Times,serif" font-size="14.00">g</text>
</g>
<!-- g&#45;&gt;f -->
<g id="edge9" class="edge"><title>g&#45;&gt;f</title>
<path fill="none" stroke="black" d="M156.43,-74.8345C146.25,-64.9376 132.476,-51.5462 120.969,-40.3591"/>
<polygon fill="black" stroke="black" points="123.405,-37.8461 113.796,-33.3847 118.526,-42.865 123.405,-37.8461"/>
</g>
</g>
</svg>
