<?xml version="1.0" encoding="UTF-8" standalone="no"?>
<!DOCTYPE svg PUBLIC "-//W3C//DTD SVG 1.1//EN"
 "http://www.w3.org/Graphics/SVG/1.1/DTD/svg11.dtd">
<!-- Generated by graphviz version 2.38.0 (20140413.2041)
 -->
<!-- Title: G Pages: 1 -->
<svg width="199pt" height="392pt"
 viewBox="0.00 0.00 199.05 392.00" xmlns="http://www.w3.org/2000/svg" xmlns:xlink="http://www.w3.org/1999/xlink">
<g id="graph0" class="graph" transform="scale(1 1) rotate(0) translate(4 388)">
<title>G</title>
<polygon fill="white" stroke="none" points="-4,4 -4,-388 195.046,-388 195.046,4 -4,4"/>
<!-- a -->
<g id="node1" class="node"><title>a</title>
<ellipse fill="white" stroke="black" cx="48.0463" cy="-366" rx="27" ry="18"/>
<text text-anchor="middle" x="48.0463" y="-362.3" font-family="Times,serif" font-size="14.00">a</text>
</g>
<!-- b -->
<g id="node2" class="node"><title>b</title>
<ellipse fill="white" stroke="black" cx="48.0463" cy="-279" rx="27" ry="18"/>
<text text-anchor="middle" x="48.0463" y="-275.3" font-family="Times,serif" font-size="14.00">b</text>
</g>
<!-- a&#45;&gt;b -->
<g id="edge1" class="edge"><title>a&#45;&gt;b</title>
<path fill="none" stroke="black" d="M48.0463,-347.799C48.0463,-336.163 48.0463,-320.548 48.0463,-307.237"/>
<polygon fill="black" stroke="black" points="51.5464,-307.175 48.0463,-297.175 44.5464,-307.175 51.5464,-307.175"/>
<text text-anchor="middle" x="51.5463" y="-318.8" font-family="Times,serif" font-size="14.00">3</text>
</g>
<!-- d -->
<g id="node4" class="node"><title>d</title>
<ellipse fill="white" stroke="black" cx="45.0463" cy="-105" rx="27" ry="18"/>
<text text-anchor="middle" x="45.0463" y="-101.3" font-family="Times,serif" font-size="14.00">d</text>
</g>
<!-- a&#45;&gt;d -->
<g id="edge3" class="edge"><title>a&#45;&gt;d</title>
<path fill="none" stroke="black" d="M37.1248,-349.371C28.5299,-336.111 17.1762,-316.231 12.0463,-297 -2.0478,-244.165 -4.13516,-227.07 9.04627,-174 12.9069,-158.456 21.0481,-142.556 28.6133,-130.044"/>
<polygon fill="black" stroke="black" points="31.5745,-131.909 33.9507,-121.584 25.6544,-128.174 31.5745,-131.909"/>
<text text-anchor="middle" x="3.54627" y="-231.8" font-family="Times,serif" font-size="14.00">2</text>
</g>
<!-- e -->
<g id="node5" class="node"><title>e</title>
<ellipse fill="white" stroke="black" cx="117.046" cy="-192" rx="27" ry="18"/>
<text text-anchor="middle" x="117.046" y="-188.3" font-family="Times,serif" font-size="14.00">e</text>
</g>
<!-- a&#45;&gt;e -->
<g id="edge6" class="edge"><title>a&#45;&gt;e</title>
<path fill="none" stroke="black" d="M57.6223,-348.912C65.4166,-335.379 76.3491,-315.355 84.0463,-297 94.8115,-271.329 104.092,-240.86 110.044,-219.561"/>
<polygon fill="black" stroke="black" points="113.423,-220.472 112.691,-209.903 106.672,-218.622 113.423,-220.472"/>
<text text-anchor="middle" x="100.546" y="-275.3" font-family="Times,serif" font-size="14.00">7</text>
</g>
<!-- c -->
<g id="node3" class="node"><title>c</title>
<ellipse fill="white" stroke="black" cx="45.0463" cy="-192" rx="27" ry="18"/>
<text text-anchor="middle" x="45.0463" y="-188.3" font-family="Times,serif" font-size="14.00">c</text>
</g>
<!-- b&#45;&gt;c -->
<g id="edge2" class="edge"><title>b&#45;&gt;c</title>
<path fill="none" stroke="black" d="M47.4392,-260.799C47.0285,-249.163 46.4774,-233.548 46.0076,-220.237"/>
<polygon fill="black" stroke="black" points="49.5031,-220.046 45.6525,-210.175 42.5075,-220.293 49.5031,-220.046"/>
<text text-anchor="middle" x="49.5463" y="-231.8" font-family="Times,serif" font-size="14.00">5</text>
</g>
<!-- b&#45;&gt;e -->
<g id="edge5" class="edge"><title>b&#45;&gt;e</title>
<path fill="none" stroke="black" d="M60.3821,-262.804C70.979,-249.75 86.414,-230.735 98.4996,-215.847"/>
<polygon fill="black" stroke="black" points="101.232,-218.035 104.817,-208.065 95.7973,-213.623 101.232,-218.035"/>
<text text-anchor="middle" x="89.5463" y="-231.8" font-family="Times,serif" font-size="14.00">1</text>
</g>
<!-- c&#45;&gt;d -->
<g id="edge4" class="edge"><title>c&#45;&gt;d</title>
<path fill="none" stroke="black" d="M45.0463,-173.799C45.0463,-162.163 45.0463,-146.548 45.0463,-133.237"/>
<polygon fill="black" stroke="black" points="48.5464,-133.175 45.0463,-123.175 41.5464,-133.175 48.5464,-133.175"/>
<text text-anchor="middle" x="48.5463" y="-144.8" font-family="Times,serif" font-size="14.00">2</text>
</g>
<!-- f -->
<g id="node6" class="node"><title>f</title>
<ellipse fill="white" stroke="black" cx="112.046" cy="-18" rx="27" ry="18"/>
<text text-anchor="middle" x="112.046" y="-14.3" font-family="Times,serif" font-size="14.00">f</text>
</g>
<!-- d&#45;&gt;f -->
<g id="edge8" class="edge"><title>d&#45;&gt;f</title>
<path fill="none" stroke="black" d="M57.0245,-88.8037C67.1561,-75.9502 81.8422,-57.3186 93.4936,-42.5369"/>
<polygon fill="black" stroke="black" points="96.5041,-44.3716 99.9458,-34.3513 91.0066,-40.0382 96.5041,-44.3716"/>
<text text-anchor="middle" x="85.5463" y="-57.8" font-family="Times,serif" font-size="14.00">4</text>
</g>
<!-- e&#45;&gt;f -->
<g id="edge7" class="edge"><title>e&#45;&gt;f</title>
<path fill="none" stroke="black" d="M116.549,-173.879C115.68,-144.001 113.881,-82.1129 112.839,-46.2736"/>
<polygon fill="black" stroke="black" points="116.331,-45.9456 112.542,-36.0516 109.334,-46.1491 116.331,-45.9456"/>
<text text-anchor="middle" x="117.546" y="-101.3" font-family="Times,serif" font-size="14.00">9</text>
</g>
<!-- g -->
<g id="node7" class="node"><title>g</title>
<ellipse fill="white" stroke="black" cx="164.046" cy="-105" rx="27" ry="18"/>
<text text-anchor="middle" x="164.046" y="-101.3" font-family="Times,serif" font-size="14.00">g</text>
</g>
<!-- g&#45;&gt;f -->
<g id="edge9" class="edge"><title>g&#45;&gt;f</title>
<path fill="none" stroke="black" d="M154.265,-88.0122C146.639,-75.5461 135.913,-58.0133 127.181,-43.7395"/>
<polygon fill="black" stroke="black" points="129.987,-41.62 121.783,-34.9162 124.016,-45.273 129.987,-41.62"/>
<text text-anchor="middle" x="144.546" y="-57.8" font-family="Times,serif" font-size="14.00">1</text>
</g>
</g>
</svg>
